<svg height="506.0" width="1010.0" xmlns="http://www.w3.org/2000/svg"><desc>{"leftTopX": 6682, "leftTopY": 6783, "rightBottomX": 7692, "rightBottomY": 7249}</desc><g transform="translate(0.5,0.5)"><g class="reference"><polyline fill="none" points="779.0,71.0 779.0,51.0 551.0,51.0" stroke="#000000" stroke-linejoin="miter"/><g class="cardinality"><line stroke="#000000" stroke-width="1.0" x1="605.0" x2="590.0" y1="51.0" y2="45.0"/><line stroke="#000000" stroke-width="1.0" x1="605.0" x2="590.0" y1="51.0" y2="57.0"/><line stroke="#000000" stroke-width="1.0" x1="605.0" x2="605.0" y1="45.0" y2="57.0"/></g><g class="mandatory"><line stroke="#000000" stroke-width="1.0" x1="705.0" x2="705.0" y1="45.0" y2="57.0"/></g></g><g class="reference"><polyline fill="none" points="698.0,166.0 698.0,90.0 580.0,90.0" stroke="#000000" stroke-linejoin="miter"/><g class="cardinality"><line stroke="#000000" stroke-width="1.0" x1="605.0" x2="590.0" y1="90.0" y2="84.0"/><line stroke="#000000" stroke-width="1.0" x1="605.0" x2="590.0" y1="90.0" y2="96.0"/><line stroke="#000000" stroke-width="1.0" x1="605.0" x2="605.0" y1="84.0" y2="96.0"/></g><g class="mandatory"><line stroke="#000000" stroke-width="1.0" x1="692.0" x2="704.0" y1="141.0" y2="141.0"/></g></g><g class="reference"><polyline fill="none" points="389.0,65.0 456.0,65.0 456.0,67.0 275.0,67.0" stroke="#000000" stroke-linejoin="miter"/><g class="cardinality"><line stroke="#000000" stroke-width="1.0" x1="300.0" x2="300.0" y1="61.0" y2="73.0"/></g><g class="mandatory"><line stroke="#000000" stroke-width="1.0" x1="350.0" x2="350.0" y1="61.0" y2="73.0"/></g></g><g class="reference"><polyline fill="none" points="399.0,286.0 389.0,286.0 389.0,251.0 265.0,251.0" stroke="#000000" stroke-linejoin="miter"/><g class="cardinality"><line stroke="#000000" stroke-width="1.0" x1="332.0" x2="317.0" y1="251.0" y2="245.0"/><line stroke="#000000" stroke-width="1.0" x1="332.0" x2="317.0" y1="251.0" y2="257.0"/><g transform="translate(332.0,251.0)"><circle fill="white" r="3.5" stroke="#000000" stroke-width="1.0"/></g></g><g class="mandatory"><g transform="translate(389.0,261.0)"><circle fill="white" r="3.5" stroke="#000000" stroke-width="1.0"/></g></g></g><g class="reference"><polyline fill="none" points="60.0,332.0 237.0,332.0 237.0,264.0 307.0,264.0" stroke="#000000" stroke-linejoin="miter"/><g class="cardinality"><line stroke="#000000" stroke-width="1.0" x1="237.0" x2="231.0" y1="289.0" y2="274.0"/><line stroke="#000000" stroke-width="1.0" x1="237.0" x2="243.0" y1="289.0" y2="274.0"/><line stroke="#000000" stroke-width="1.0" x1="231.0" x2="243.0" y1="289.0" y2="289.0"/></g><g class="mandatory"><line stroke="#000000" stroke-width="1.0" x1="224.0" x2="224.0" y1="326.0" y2="338.0"/></g></g><g class="reference"><polyline fill="none" points="719.0,436.0 809.0,436.0 809.0,407.0 304.0,407.0" stroke="#000000" stroke-linejoin="miter"/><g class="cardinality"><line stroke="#000000" stroke-width="1.0" x1="436.0" x2="421.0" y1="407.0" y2="401.0"/><line stroke="#000000" stroke-width="1.0" x1="436.0" x2="421.0" y1="407.0" y2="413.0"/><g transform="translate(436.0,407.0)"><circle fill="white" r="3.5" stroke="#000000" stroke-width="1.0"/></g></g><g class="mandatory"><line stroke="#000000" stroke-width="1.0" x1="629.0" x2="629.0" y1="401.0" y2="413.0"/></g></g><g class="reference"><polyline fill="none" points="411.0,371.0 411.0,376.0 610.0,376.0 610.0,214.0" stroke="#000000" stroke-linejoin="miter"/><g class="cardinality"><line stroke="#000000" stroke-width="1.0" x1="610.0" x2="604.0" y1="287.0" y2="272.0"/><line stroke="#000000" stroke-width="1.0" x1="610.0" x2="616.0" y1="287.0" y2="272.0"/><g transform="translate(610.0,287.0)"><circle fill="white" r="3.5" stroke="#000000" stroke-width="1.0"/></g></g><g class="mandatory"><line stroke="#000000" stroke-width="1.0" x1="436.0" x2="436.0" y1="370.0" y2="382.0"/></g></g><g class="reference"><polyline fill="none" points="318.0,354.0 301.0,354.0 301.0,264.0 307.0,264.0" stroke="#000000" stroke-linejoin="miter"/><g class="cardinality"><line stroke="#000000" stroke-width="1.0" x1="301.0" x2="295.0" y1="289.0" y2="274.0"/><line stroke="#000000" stroke-width="1.0" x1="301.0" x2="307.0" y1="289.0" y2="274.0"/><g transform="translate(301.0,289.0)"><circle fill="white" r="3.5" stroke="#000000" stroke-width="1.0"/></g></g><g class="mandatory"><line stroke="#000000" stroke-width="1.0" x1="295.0" x2="307.0" y1="329.0" y2="329.0"/></g></g><g class="reference"><polyline fill="none" points="695.0,322.0 912.0,322.0 912.0,412.0 725.0,412.0" stroke="#000000" stroke-linejoin="miter"/><g class="cardinality"><line stroke="#000000" stroke-width="1.0" x1="851.0" x2="836.0" y1="412.0" y2="406.0"/><line stroke="#000000" stroke-width="1.0" x1="851.0" x2="836.0" y1="412.0" y2="418.0"/><line stroke="#000000" stroke-width="1.0" x1="851.0" x2="851.0" y1="406.0" y2="418.0"/></g><g class="mandatory"><line stroke="#000000" stroke-width="1.0" x1="878.0" x2="878.0" y1="316.0" y2="328.0"/></g></g><g class="reference"><polyline fill="none" points="464.0,314.0 471.0,314.0 471.0,212.0" stroke="#000000" stroke-linejoin="miter"/><g class="cardinality"><line stroke="#000000" stroke-width="1.0" x1="471.0" x2="465.0" y1="242.0" y2="227.0"/><line stroke="#000000" stroke-width="1.0" x1="471.0" x2="477.0" y1="242.0" y2="227.0"/><g transform="translate(471.0,242.0)"><circle fill="white" r="3.5" stroke="#000000" stroke-width="1.0"/></g></g><g class="mandatory"><line stroke="#000000" stroke-width="1.0" x1="465.0" x2="477.0" y1="261.0" y2="261.0"/></g></g><g class="reference"><polyline fill="none" points="629.0,192.0 512.0,192.0 512.0,212.0" stroke="#000000" stroke-linejoin="miter"/><g class="cardinality"><line stroke="#000000" stroke-width="1.0" x1="556.0" x2="556.0" y1="186.0" y2="198.0"/></g><g class="mandatory"><line stroke="#000000" stroke-width="1.0" x1="585.0" x2="585.0" y1="186.0" y2="198.0"/></g></g><g class="reference"><polyline fill="none" points="230.0,226.0 230.0,79.0" stroke="#000000" stroke-linejoin="miter"/><g class="cardinality"><line stroke="#000000" stroke-width="1.0" x1="224.0" x2="236.0" y1="108.0" y2="108.0"/></g><g class="mandatory"><line stroke="#000000" stroke-width="1.0" x1="224.0" x2="236.0" y1="157.0" y2="157.0"/></g></g><g class="reference"><polyline fill="none" points="779.0,166.0 779.0,169.0 857.0,169.0" stroke="#000000" stroke-linejoin="miter"/><g class="cardinality"><line stroke="#000000" stroke-width="1.0" x1="832.0" x2="832.0" y1="163.0" y2="175.0"/></g><g class="mandatory"><line stroke="#000000" stroke-width="1.0" x1="804.0" x2="804.0" y1="163.0" y2="175.0"/></g></g><g class="reference"><polyline fill="none" points="747.0,254.0 868.0,254.0 868.0,249.0 900.0,249.0" stroke="#000000" stroke-linejoin="miter"/><g class="cardinality"><line stroke="#000000" stroke-width="1.0" x1="832.0" x2="832.0" y1="248.0" y2="260.0"/></g><g class="mandatory"><line stroke="#000000" stroke-width="1.0" x1="804.0" x2="804.0" y1="248.0" y2="260.0"/></g></g><g class="reference"><polyline fill="none" points="288.0,198.0 279.0,198.0 279.0,197.0 394.0,197.0" stroke="#000000" stroke-linejoin="miter"/><g class="cardinality"><line stroke="#000000" stroke-width="1.0" x1="350.0" x2="365.0" y1="197.0" y2="191.0"/><line stroke="#000000" stroke-width="1.0" x1="350.0" x2="365.0" y1="197.0" y2="203.0"/><line stroke="#000000" stroke-width="1.0" x1="350.0" x2="350.0" y1="191.0" y2="203.0"/></g><g class="mandatory"><line stroke="#000000" stroke-width="1.0" x1="332.0" x2="332.0" y1="191.0" y2="203.0"/></g></g><g class="table" transform="translate(148.0,20.0)"><g transform="translate(0.0,0.0)"><rect fill="#f0f0f0" height="20.0" width="137.0"/></g><g transform="translate(0.0,0.0)"><text fill="black" font-family="arial, sans-serif" font-size="12" font-weight="700" text-anchor="middle" x="69.5" y="14.1396484375">Zarazony</text></g><g transform="translate(0.0,20.0)"><rect fill="#ffffff" height="53.0" width="137.0"/><g transform="translate(4.0,3.0)"><g transform="translate(0.0,0.0)"><text fill="black" font-family="arial, sans-serif" font-size="12" font-weight="400" x="1.0" y="10.86328125">IdZarazony</text></g><g transform="translate(0.0,14.0)"><text fill="black" font-family="arial, sans-serif" font-size="12" font-weight="400" x="1.0" y="10.86328125">IdTest</text></g><g transform="translate(0.0,28.0)"><text fill="black" font-family="arial, sans-serif" font-size="12" font-weight="400" x="1.0" y="10.86328125">IdSzpital</text></g></g><g transform="translate(76.0,3.0)"><g transform="translate(0.0,0.0)"><text fill="black" font-family="arial, sans-serif" font-size="12" font-weight="400" x="1.0" y="10.86328125">integer</text></g><g transform="translate(0.0,14.0)"><text fill="black" font-family="arial, sans-serif" font-size="12" font-weight="400" x="1.0" y="10.86328125">integer</text></g><g transform="translate(0.0,28.0)"><text fill="black" font-family="arial, sans-serif" font-size="12" font-weight="400" x="1.0" y="10.86328125">integer</text></g></g><g transform="translate(116.75,3.0)"><g transform="translate(0.0,0.0)"><text fill="black" font-family="arial, sans-serif" font-size="12" font-weight="400" x="1.0" y="10.86328125">PK</text></g><g transform="translate(0.0,14.0)"><text fill="black" font-family="arial, sans-serif" font-size="12" font-weight="400" x="1.0" y="10.86328125">FK</text></g><g transform="translate(0.0,28.0)"><text fill="black" font-family="arial, sans-serif" font-size="12" font-weight="400" x="1.0" y="10.86328125">FK</text></g></g></g><polyline fill="none" points="0.0,20.0 0.0,0.0 137.0,0.0 137.0,20.0 0.0,20.0 0.0,73.0 137.0,73.0 137.0,20.0" stroke="#000000" stroke-linejoin="miter"/></g><g class="table" transform="translate(365.0,24.0)"><g transform="translate(0.0,0.0)"><rect fill="#f0f0f0" height="20.0" width="225.0"/></g><g transform="translate(0.0,0.0)"><text fill="black" font-family="arial, sans-serif" font-size="12" font-weight="700" text-anchor="middle" x="113.5" y="14.1396484375">TestNaCovid</text></g><g transform="translate(0.0,20.0)"><rect fill="#ffffff" height="82.0" width="225.0"/><g transform="translate(4.0,3.0)"><g transform="translate(0.0,0.0)"><text fill="black" font-family="arial, sans-serif" font-size="12" font-weight="400" x="1.0" y="10.86328125">IdTest</text></g><g transform="translate(0.0,14.0)"><text fill="black" font-family="arial, sans-serif" font-size="12" font-weight="400" x="1.0" y="10.86328125">IdOsoba</text></g><g transform="translate(0.0,28.0)"><text fill="black" font-family="arial, sans-serif" font-size="12" font-weight="400" x="1.0" y="10.86328125">WynikTestu</text></g><g transform="translate(0.0,42.0)"><text fill="black" font-family="arial, sans-serif" font-size="12" font-weight="400" x="1.0" y="10.86328125">DataPrzeprowadzeniaTestu</text></g><g transform="translate(0.0,56.0)"><text fill="black" font-family="arial, sans-serif" font-size="12" font-weight="400" x="1.0" y="10.86328125">IdRodzaj</text></g></g><g transform="translate(162.5,3.0)"><g transform="translate(0.0,0.0)"><text fill="black" font-family="arial, sans-serif" font-size="12" font-weight="400" x="1.0" y="10.86328125">integer</text></g><g transform="translate(0.0,14.0)"><text fill="black" font-family="arial, sans-serif" font-size="12" font-weight="400" x="1.0" y="10.86328125">integer</text></g><g transform="translate(0.0,28.0)"><text fill="black" font-family="arial, sans-serif" font-size="12" font-weight="400" x="1.0" y="10.86328125">char(1)</text></g><g transform="translate(0.0,42.0)"><text fill="black" font-family="arial, sans-serif" font-size="12" font-weight="400" x="1.0" y="10.86328125">date</text></g><g transform="translate(0.0,56.0)"><text fill="black" font-family="arial, sans-serif" font-size="12" font-weight="400" x="1.0" y="10.86328125">integer</text></g></g><g transform="translate(204.75,3.0)"><g transform="translate(0.0,0.0)"><text fill="black" font-family="arial, sans-serif" font-size="12" font-weight="400" x="1.0" y="10.86328125">PK</text></g><g transform="translate(0.0,14.0)"><text fill="black" font-family="arial, sans-serif" font-size="12" font-weight="400" x="1.0" y="10.86328125">FK</text></g><g transform="translate(0.0,28.0)"><text fill="black" font-family="arial, sans-serif" font-size="12" font-weight="400" x="1.0" y="10.86328125"/></g><g transform="translate(0.0,42.0)"><text fill="black" font-family="arial, sans-serif" font-size="12" font-weight="400" x="1.0" y="10.86328125"/></g><g transform="translate(0.0,56.0)"><text fill="black" font-family="arial, sans-serif" font-size="12" font-weight="400" x="1.0" y="10.86328125">FK</text></g></g></g><polyline fill="none" points="0.0,20.0 0.0,0.0 225.0,0.0 225.0,20.0 0.0,20.0 0.0,102.0 225.0,102.0 225.0,20.0" stroke="#000000" stroke-linejoin="miter"/></g><g class="table" transform="translate(148.0,172.0)"><g transform="translate(0.0,0.0)"><rect fill="#f0f0f0" height="20.0" width="169.0"/></g><g transform="translate(0.0,0.0)"><text fill="black" font-family="arial, sans-serif" font-size="12" font-weight="700" text-anchor="middle" x="85.5" y="14.1396484375">Szpital</text></g><g transform="translate(0.0,20.0)"><rect fill="#ffffff" height="82.0" width="169.0"/><g transform="translate(4.0,3.0)"><g transform="translate(0.0,0.0)"><text fill="black" font-family="arial, sans-serif" font-size="12" font-weight="400" x="1.0" y="10.86328125">IdSzpital</text></g><g transform="translate(0.0,14.0)"><text fill="black" font-family="arial, sans-serif" font-size="12" font-weight="400" x="1.0" y="10.86328125">IdAares</text></g><g transform="translate(0.0,28.0)"><text fill="black" font-family="arial, sans-serif" font-size="12" font-weight="400" x="1.0" y="10.86328125">IloscLozek</text></g><g transform="translate(0.0,42.0)"><text fill="black" font-family="arial, sans-serif" font-size="12" font-weight="400" x="1.0" y="10.86328125">IdSpecjalizacja</text></g><g transform="translate(0.0,56.0)"><text fill="black" font-family="arial, sans-serif" font-size="12" font-weight="400" x="1.0" y="10.86328125">IdRodzaj</text></g></g><g transform="translate(96.75,3.0)"><g transform="translate(0.0,0.0)"><text fill="black" font-family="arial, sans-serif" font-size="12" font-weight="400" x="1.0" y="10.86328125">integer</text></g><g transform="translate(0.0,14.0)"><text fill="black" font-family="arial, sans-serif" font-size="12" font-weight="400" x="1.0" y="10.86328125">integer</text></g><g transform="translate(0.0,28.0)"><text fill="black" font-family="arial, sans-serif" font-size="12" font-weight="400" x="1.0" y="10.86328125">integer</text></g><g transform="translate(0.0,42.0)"><text fill="black" font-family="arial, sans-serif" font-size="12" font-weight="400" x="1.0" y="10.86328125">integer</text></g><g transform="translate(0.0,56.0)"><text fill="black" font-family="arial, sans-serif" font-size="12" font-weight="400" x="1.0" y="10.86328125">integer</text></g></g><g transform="translate(137.5,3.0)"><g transform="translate(0.0,0.0)"><text fill="black" font-family="arial, sans-serif" font-size="12" font-weight="400" x="1.0" y="10.86328125">PK</text></g><g transform="translate(0.0,14.0)"><text fill="black" font-family="arial, sans-serif" font-size="12" font-weight="400" x="1.0" y="10.86328125">FK</text></g><g transform="translate(0.0,28.0)"><text fill="black" font-family="arial, sans-serif" font-size="12" font-weight="400" x="1.0" y="10.86328125"/></g><g transform="translate(0.0,42.0)"><text fill="black" font-family="arial, sans-serif" font-size="12" font-weight="400" x="1.0" y="10.86328125">N FK</text></g><g transform="translate(0.0,56.0)"><text fill="black" font-family="arial, sans-serif" font-size="12" font-weight="400" x="1.0" y="10.86328125">FK</text></g></g></g><polyline fill="none" points="0.0,20.0 0.0,0.0 169.0,0.0 169.0,20.0 0.0,20.0 0.0,102.0 169.0,102.0 169.0,20.0" stroke="#000000" stroke-linejoin="miter"/></g><g class="table" transform="translate(847.0,126.0)"><g transform="translate(0.0,0.0)"><rect fill="#f0f0f0" height="20.0" width="143.0"/></g><g transform="translate(0.0,0.0)"><text fill="black" font-family="arial, sans-serif" font-size="12" font-weight="700" text-anchor="middle" x="72.5" y="14.1396484375">Zmarly</text></g><g transform="translate(0.0,20.0)"><rect fill="#ffffff" height="53.0" width="143.0"/><g transform="translate(4.0,3.0)"><g transform="translate(0.0,0.0)"><text fill="black" font-family="arial, sans-serif" font-size="12" font-weight="400" x="1.0" y="10.86328125">IdZmarly</text></g><g transform="translate(0.0,14.0)"><text fill="black" font-family="arial, sans-serif" font-size="12" font-weight="400" x="1.0" y="10.86328125">DataSmierci</text></g><g transform="translate(0.0,28.0)"><text fill="black" font-family="arial, sans-serif" font-size="12" font-weight="400" x="1.0" y="10.86328125">IdOsoba</text></g></g><g transform="translate(82.0,3.0)"><g transform="translate(0.0,0.0)"><text fill="black" font-family="arial, sans-serif" font-size="12" font-weight="400" x="1.0" y="10.86328125">integer</text></g><g transform="translate(0.0,14.0)"><text fill="black" font-family="arial, sans-serif" font-size="12" font-weight="400" x="1.0" y="10.86328125">date</text></g><g transform="translate(0.0,28.0)"><text fill="black" font-family="arial, sans-serif" font-size="12" font-weight="400" x="1.0" y="10.86328125">integer</text></g></g><g transform="translate(122.75,3.0)"><g transform="translate(0.0,0.0)"><text fill="black" font-family="arial, sans-serif" font-size="12" font-weight="400" x="1.0" y="10.86328125">PK</text></g><g transform="translate(0.0,14.0)"><text fill="black" font-family="arial, sans-serif" font-size="12" font-weight="400" x="1.0" y="10.86328125"/></g><g transform="translate(0.0,28.0)"><text fill="black" font-family="arial, sans-serif" font-size="12" font-weight="400" x="1.0" y="10.86328125">FK</text></g></g></g><polyline fill="none" points="0.0,20.0 0.0,0.0 143.0,0.0 143.0,20.0 0.0,20.0 0.0,73.0 143.0,73.0 143.0,20.0" stroke="#000000" stroke-linejoin="miter"/></g><g class="table" transform="translate(365.0,154.0)"><g transform="translate(0.0,0.0)"><rect fill="#f0f0f0" height="20.0" width="176.0"/></g><g transform="translate(0.0,0.0)"><text fill="black" font-family="arial, sans-serif" font-size="12" font-weight="700" text-anchor="middle" x="89.0" y="14.1396484375">Lekarz</text></g><g transform="translate(0.0,20.0)"><rect fill="#ffffff" height="53.0" width="176.0"/><g transform="translate(4.0,3.0)"><g transform="translate(0.0,0.0)"><text fill="black" font-family="arial, sans-serif" font-size="12" font-weight="400" x="1.0" y="10.86328125">IdOsoby</text></g><g transform="translate(0.0,14.0)"><text fill="black" font-family="arial, sans-serif" font-size="12" font-weight="400" x="1.0" y="10.86328125">IdSpecjalizacja</text></g><g transform="translate(0.0,28.0)"><text fill="black" font-family="arial, sans-serif" font-size="12" font-weight="400" x="1.0" y="10.86328125">IdSzpital</text></g></g><g transform="translate(96.5,3.0)"><g transform="translate(0.0,0.0)"><text fill="black" font-family="arial, sans-serif" font-size="12" font-weight="400" x="1.0" y="10.86328125">integer</text></g><g transform="translate(0.0,14.0)"><text fill="black" font-family="arial, sans-serif" font-size="12" font-weight="400" x="1.0" y="10.86328125">integer</text></g><g transform="translate(0.0,28.0)"><text fill="black" font-family="arial, sans-serif" font-size="12" font-weight="400" x="1.0" y="10.86328125">integer</text></g></g><g transform="translate(137.25,3.0)"><g transform="translate(0.0,0.0)"><text fill="black" font-family="arial, sans-serif" font-size="12" font-weight="400" x="1.0" y="10.86328125">PK FK</text></g><g transform="translate(0.0,14.0)"><text fill="black" font-family="arial, sans-serif" font-size="12" font-weight="400" x="1.0" y="10.86328125">FK</text></g><g transform="translate(0.0,28.0)"><text fill="black" font-family="arial, sans-serif" font-size="12" font-weight="400" x="1.0" y="10.86328125">FK</text></g></g></g><polyline fill="none" points="0.0,20.0 0.0,0.0 176.0,0.0 176.0,20.0 0.0,20.0 0.0,73.0 176.0,73.0 176.0,20.0" stroke="#000000" stroke-linejoin="miter"/></g><g class="table" transform="translate(600.0,156.0)"><g transform="translate(0.0,0.0)"><rect fill="#f0f0f0" height="20.0" width="189.0"/></g><g transform="translate(0.0,0.0)"><text fill="black" font-family="arial, sans-serif" font-size="12" font-weight="700" text-anchor="middle" x="95.5" y="14.1396484375">DaneOsobowe</text></g><g transform="translate(0.0,20.0)"><rect fill="#ffffff" height="96.0" width="189.0"/><g transform="translate(4.0,3.0)"><g transform="translate(0.0,0.0)"><text fill="black" font-family="arial, sans-serif" font-size="12" font-weight="400" x="1.0" y="10.86328125">IdOsoba</text></g><g transform="translate(0.0,14.0)"><text fill="black" font-family="arial, sans-serif" font-size="12" font-weight="400" x="1.0" y="10.86328125">Imie</text></g><g transform="translate(0.0,28.0)"><text fill="black" font-family="arial, sans-serif" font-size="12" font-weight="400" x="1.0" y="10.86328125">Nazwisko</text></g><g transform="translate(0.0,42.0)"><text fill="black" font-family="arial, sans-serif" font-size="12" font-weight="400" x="1.0" y="10.86328125">IdAdres</text></g><g transform="translate(0.0,56.0)"><text fill="black" font-family="arial, sans-serif" font-size="12" font-weight="400" x="1.0" y="10.86328125">DataUrodzenia</text></g><g transform="translate(0.0,70.0)"><text fill="black" font-family="arial, sans-serif" font-size="12" font-weight="400" x="1.0" y="10.86328125">Plec</text></g></g><g transform="translate(96.5,3.0)"><g transform="translate(0.0,0.0)"><text fill="black" font-family="arial, sans-serif" font-size="12" font-weight="400" x="1.0" y="10.86328125">integer</text></g><g transform="translate(0.0,14.0)"><text fill="black" font-family="arial, sans-serif" font-size="12" font-weight="400" x="1.0" y="10.86328125">varchar2(50)</text></g><g transform="translate(0.0,28.0)"><text fill="black" font-family="arial, sans-serif" font-size="12" font-weight="400" x="1.0" y="10.86328125">varchar2(50)</text></g><g transform="translate(0.0,42.0)"><text fill="black" font-family="arial, sans-serif" font-size="12" font-weight="400" x="1.0" y="10.86328125">integer</text></g><g transform="translate(0.0,56.0)"><text fill="black" font-family="arial, sans-serif" font-size="12" font-weight="400" x="1.0" y="10.86328125">date</text></g><g transform="translate(0.0,70.0)"><text fill="black" font-family="arial, sans-serif" font-size="12" font-weight="400" x="1.0" y="10.86328125">char(1)</text></g></g><g transform="translate(168.75,3.0)"><g transform="translate(0.0,0.0)"><text fill="black" font-family="arial, sans-serif" font-size="12" font-weight="400" x="1.0" y="10.86328125">PK</text></g><g transform="translate(0.0,14.0)"><text fill="black" font-family="arial, sans-serif" font-size="12" font-weight="400" x="1.0" y="10.86328125"/></g><g transform="translate(0.0,28.0)"><text fill="black" font-family="arial, sans-serif" font-size="12" font-weight="400" x="1.0" y="10.86328125"/></g><g transform="translate(0.0,42.0)"><text fill="black" font-family="arial, sans-serif" font-size="12" font-weight="400" x="1.0" y="10.86328125">FK</text></g><g transform="translate(0.0,56.0)"><text fill="black" font-family="arial, sans-serif" font-size="12" font-weight="400" x="1.0" y="10.86328125"/></g><g transform="translate(0.0,70.0)"><text fill="black" font-family="arial, sans-serif" font-size="12" font-weight="400" x="1.0" y="10.86328125"/></g></g></g><polyline fill="none" points="0.0,20.0 0.0,0.0 189.0,0.0 189.0,20.0 0.0,20.0 0.0,116.0 189.0,116.0 189.0,20.0" stroke="#000000" stroke-linejoin="miter"/></g><g class="table" transform="translate(720.0,24.0)"><g transform="translate(0.0,0.0)"><rect fill="#f0f0f0" height="20.0" width="181.0"/></g><g transform="translate(0.0,0.0)"><text fill="black" font-family="arial, sans-serif" font-size="12" font-weight="700" text-anchor="middle" x="91.5" y="14.1396484375">RodzajTestu</text></g><g transform="translate(0.0,20.0)"><rect fill="#ffffff" height="53.0" width="181.0"/><g transform="translate(4.0,3.0)"><g transform="translate(0.0,0.0)"><text fill="black" font-family="arial, sans-serif" font-size="12" font-weight="400" x="1.0" y="10.86328125">IdRodzaj</text></g><g transform="translate(0.0,14.0)"><text fill="black" font-family="arial, sans-serif" font-size="12" font-weight="400" x="1.0" y="10.86328125">NazwaTestu</text></g><g transform="translate(0.0,28.0)"><text fill="black" font-family="arial, sans-serif" font-size="12" font-weight="400" x="1.0" y="10.86328125">Opis</text></g></g><g transform="translate(82.0,3.0)"><g transform="translate(0.0,0.0)"><text fill="black" font-family="arial, sans-serif" font-size="12" font-weight="400" x="1.0" y="10.86328125">integer</text></g><g transform="translate(0.0,14.0)"><text fill="black" font-family="arial, sans-serif" font-size="12" font-weight="400" x="1.0" y="10.86328125">varchar2(50)</text></g><g transform="translate(0.0,28.0)"><text fill="black" font-family="arial, sans-serif" font-size="12" font-weight="400" x="1.0" y="10.86328125">varchar2(255)</text></g></g><g transform="translate(160.75,3.0)"><g transform="translate(0.0,0.0)"><text fill="black" font-family="arial, sans-serif" font-size="12" font-weight="400" x="1.0" y="10.86328125">PK</text></g><g transform="translate(0.0,14.0)"><text fill="black" font-family="arial, sans-serif" font-size="12" font-weight="400" x="1.0" y="10.86328125"/></g><g transform="translate(0.0,28.0)"><text fill="black" font-family="arial, sans-serif" font-size="12" font-weight="400" x="1.0" y="10.86328125"/></g></g></g><polyline fill="none" points="0.0,20.0 0.0,0.0 181.0,0.0 181.0,20.0 0.0,20.0 0.0,73.0 181.0,73.0 181.0,20.0" stroke="#000000" stroke-linejoin="miter"/></g><g class="table" transform="translate(365.0,276.0)"><g transform="translate(0.0,0.0)"><rect fill="#f0f0f0" height="20.0" width="189.0"/></g><g transform="translate(0.0,0.0)"><text fill="black" font-family="arial, sans-serif" font-size="12" font-weight="700" text-anchor="middle" x="95.5" y="14.1396484375">Specjalizacja</text></g><g transform="translate(0.0,20.0)"><rect fill="#ffffff" height="38.0" width="189.0"/><g transform="translate(4.0,3.0)"><g transform="translate(0.0,0.0)"><text fill="black" font-family="arial, sans-serif" font-size="12" font-weight="400" x="1.0" y="10.86328125">IdSpecjalizacja</text></g><g transform="translate(0.0,14.0)"><text fill="black" font-family="arial, sans-serif" font-size="12" font-weight="400" x="1.0" y="10.86328125">Specjalizacja</text></g></g><g transform="translate(96.5,3.0)"><g transform="translate(0.0,0.0)"><text fill="black" font-family="arial, sans-serif" font-size="12" font-weight="400" x="1.0" y="10.86328125">integer</text></g><g transform="translate(0.0,14.0)"><text fill="black" font-family="arial, sans-serif" font-size="12" font-weight="400" x="1.0" y="10.86328125">varchar2(50)</text></g></g><g transform="translate(168.75,3.0)"><g transform="translate(0.0,0.0)"><text fill="black" font-family="arial, sans-serif" font-size="12" font-weight="400" x="1.0" y="10.86328125">PK</text></g><g transform="translate(0.0,14.0)"><text fill="black" font-family="arial, sans-serif" font-size="12" font-weight="400" x="1.0" y="10.86328125"/></g></g></g><polyline fill="none" points="0.0,20.0 0.0,0.0 189.0,0.0 189.0,20.0 0.0,20.0 0.0,58.0 189.0,58.0 189.0,20.0" stroke="#000000" stroke-linejoin="miter"/></g><g class="table" transform="translate(20.0,300.0)"><g transform="translate(0.0,0.0)"><rect fill="#f0f0f0" height="20.0" width="189.0"/></g><g transform="translate(0.0,0.0)"><text fill="black" font-family="arial, sans-serif" font-size="12" font-weight="700" text-anchor="middle" x="95.5" y="14.1396484375">RodzajSzpitalu</text></g><g transform="translate(0.0,20.0)"><rect fill="#ffffff" height="38.0" width="189.0"/><g transform="translate(4.0,3.0)"><g transform="translate(0.0,0.0)"><text fill="black" font-family="arial, sans-serif" font-size="12" font-weight="400" x="1.0" y="10.86328125">IdRodzaj</text></g><g transform="translate(0.0,14.0)"><text fill="black" font-family="arial, sans-serif" font-size="12" font-weight="400" x="1.0" y="10.86328125">RodzajSzpitala</text></g></g><g transform="translate(96.5,3.0)"><g transform="translate(0.0,0.0)"><text fill="black" font-family="arial, sans-serif" font-size="12" font-weight="400" x="1.0" y="10.86328125">integer</text></g><g transform="translate(0.0,14.0)"><text fill="black" font-family="arial, sans-serif" font-size="12" font-weight="400" x="1.0" y="10.86328125">varchar2(50)</text></g></g><g transform="translate(168.75,3.0)"><g transform="translate(0.0,0.0)"><text fill="black" font-family="arial, sans-serif" font-size="12" font-weight="400" x="1.0" y="10.86328125">PK</text></g><g transform="translate(0.0,14.0)"><text fill="black" font-family="arial, sans-serif" font-size="12" font-weight="400" x="1.0" y="10.86328125"/></g></g></g><polyline fill="none" points="0.0,20.0 0.0,0.0 189.0,0.0 189.0,20.0 0.0,20.0 0.0,58.0 189.0,58.0 189.0,20.0" stroke="#000000" stroke-linejoin="miter"/></g><g class="table" transform="translate(644.0,292.0)"><g transform="translate(0.0,0.0)"><rect fill="#f0f0f0" height="20.0" width="219.0"/></g><g transform="translate(0.0,0.0)"><text fill="black" font-family="arial, sans-serif" font-size="12" font-weight="700" text-anchor="middle" x="110.5" y="14.1396484375">Wojewodztwo</text></g><g transform="translate(0.0,20.0)"><rect fill="#ffffff" height="38.0" width="219.0"/><g transform="translate(4.0,3.0)"><g transform="translate(0.0,0.0)"><text fill="black" font-family="arial, sans-serif" font-size="12" font-weight="400" x="1.0" y="10.86328125">IdWojewodztwo</text></g><g transform="translate(0.0,14.0)"><text fill="black" font-family="arial, sans-serif" font-size="12" font-weight="400" x="1.0" y="10.86328125">NazwaWojewodztwo</text></g></g><g transform="translate(126.5,3.0)"><g transform="translate(0.0,0.0)"><text fill="black" font-family="arial, sans-serif" font-size="12" font-weight="400" x="1.0" y="10.86328125">integer</text></g><g transform="translate(0.0,14.0)"><text fill="black" font-family="arial, sans-serif" font-size="12" font-weight="400" x="1.0" y="10.86328125">varchar2(50)</text></g></g><g transform="translate(198.75,3.0)"><g transform="translate(0.0,0.0)"><text fill="black" font-family="arial, sans-serif" font-size="12" font-weight="400" x="1.0" y="10.86328125">PK</text></g><g transform="translate(0.0,14.0)"><text fill="black" font-family="arial, sans-serif" font-size="12" font-weight="400" x="1.0" y="10.86328125"/></g></g></g><polyline fill="none" points="0.0,20.0 0.0,0.0 219.0,0.0 219.0,20.0 0.0,20.0 0.0,58.0 219.0,58.0 219.0,20.0" stroke="#000000" stroke-linejoin="miter"/></g><g class="table" transform="translate(644.0,373.0)"><g transform="translate(0.0,0.0)"><rect fill="#f0f0f0" height="20.0" width="192.0"/></g><g transform="translate(0.0,0.0)"><text fill="black" font-family="arial, sans-serif" font-size="12" font-weight="700" text-anchor="middle" x="97.0" y="14.1396484375">Miasto</text></g><g transform="translate(0.0,20.0)"><rect fill="#ffffff" height="53.0" width="192.0"/><g transform="translate(4.0,3.0)"><g transform="translate(0.0,0.0)"><text fill="black" font-family="arial, sans-serif" font-size="12" font-weight="400" x="1.0" y="10.86328125">IdMiasto</text></g><g transform="translate(0.0,14.0)"><text fill="black" font-family="arial, sans-serif" font-size="12" font-weight="400" x="1.0" y="10.86328125">IdWojewodztwo</text></g><g transform="translate(0.0,28.0)"><text fill="black" font-family="arial, sans-serif" font-size="12" font-weight="400" x="1.0" y="10.86328125">NazwaMiasto</text></g></g><g transform="translate(99.5,3.0)"><g transform="translate(0.0,0.0)"><text fill="black" font-family="arial, sans-serif" font-size="12" font-weight="400" x="1.0" y="10.86328125">integer</text></g><g transform="translate(0.0,14.0)"><text fill="black" font-family="arial, sans-serif" font-size="12" font-weight="400" x="1.0" y="10.86328125">integer</text></g><g transform="translate(0.0,28.0)"><text fill="black" font-family="arial, sans-serif" font-size="12" font-weight="400" x="1.0" y="10.86328125">varchar2(50)</text></g></g><g transform="translate(171.75,3.0)"><g transform="translate(0.0,0.0)"><text fill="black" font-family="arial, sans-serif" font-size="12" font-weight="400" x="1.0" y="10.86328125">PK</text></g><g transform="translate(0.0,14.0)"><text fill="black" font-family="arial, sans-serif" font-size="12" font-weight="400" x="1.0" y="10.86328125">FK</text></g><g transform="translate(0.0,28.0)"><text fill="black" font-family="arial, sans-serif" font-size="12" font-weight="400" x="1.0" y="10.86328125"/></g></g></g><polyline fill="none" points="0.0,20.0 0.0,0.0 192.0,0.0 192.0,20.0 0.0,20.0 0.0,73.0 192.0,73.0 192.0,20.0" stroke="#000000" stroke-linejoin="miter"/></g><g class="table" transform="translate(253.0,344.0)"><g transform="translate(0.0,0.0)"><rect fill="#f0f0f0" height="20.0" width="168.0"/></g><g transform="translate(0.0,0.0)"><text fill="black" font-family="arial, sans-serif" font-size="12" font-weight="700" text-anchor="middle" x="85.0" y="14.1396484375">Adres</text></g><g transform="translate(0.0,20.0)"><rect fill="#ffffff" height="82.0" width="168.0"/><g transform="translate(4.0,3.0)"><g transform="translate(0.0,0.0)"><text fill="black" font-family="arial, sans-serif" font-size="12" font-weight="400" x="1.0" y="10.86328125">IdAdres</text></g><g transform="translate(0.0,14.0)"><text fill="black" font-family="arial, sans-serif" font-size="12" font-weight="400" x="1.0" y="10.86328125">IdMiasto</text></g><g transform="translate(0.0,28.0)"><text fill="black" font-family="arial, sans-serif" font-size="12" font-weight="400" x="1.0" y="10.86328125">Ulica</text></g><g transform="translate(0.0,42.0)"><text fill="black" font-family="arial, sans-serif" font-size="12" font-weight="400" x="1.0" y="10.86328125">NrBudynku</text></g><g transform="translate(0.0,56.0)"><text fill="black" font-family="arial, sans-serif" font-size="12" font-weight="400" x="1.0" y="10.86328125">NrLokalu</text></g></g><g transform="translate(75.5,3.0)"><g transform="translate(0.0,0.0)"><text fill="black" font-family="arial, sans-serif" font-size="12" font-weight="400" x="1.0" y="10.86328125">integer</text></g><g transform="translate(0.0,14.0)"><text fill="black" font-family="arial, sans-serif" font-size="12" font-weight="400" x="1.0" y="10.86328125">integer</text></g><g transform="translate(0.0,28.0)"><text fill="black" font-family="arial, sans-serif" font-size="12" font-weight="400" x="1.0" y="10.86328125">varchar2(50)</text></g><g transform="translate(0.0,42.0)"><text fill="black" font-family="arial, sans-serif" font-size="12" font-weight="400" x="1.0" y="10.86328125">varchar2(50)</text></g><g transform="translate(0.0,56.0)"><text fill="black" font-family="arial, sans-serif" font-size="12" font-weight="400" x="1.0" y="10.86328125">varchar2(10)</text></g></g><g transform="translate(147.75,3.0)"><g transform="translate(0.0,0.0)"><text fill="black" font-family="arial, sans-serif" font-size="12" font-weight="400" x="1.0" y="10.86328125">PK</text></g><g transform="translate(0.0,14.0)"><text fill="black" font-family="arial, sans-serif" font-size="12" font-weight="400" x="1.0" y="10.86328125">FK</text></g><g transform="translate(0.0,28.0)"><text fill="black" font-family="arial, sans-serif" font-size="12" font-weight="400" x="1.0" y="10.86328125"/></g><g transform="translate(0.0,42.0)"><text fill="black" font-family="arial, sans-serif" font-size="12" font-weight="400" x="1.0" y="10.86328125"/></g><g transform="translate(0.0,56.0)"><text fill="black" font-family="arial, sans-serif" font-size="12" font-weight="400" x="1.0" y="10.86328125">N</text></g></g></g><polyline fill="none" points="0.0,20.0 0.0,0.0 168.0,0.0 168.0,20.0 0.0,20.0 0.0,102.0 168.0,102.0 168.0,20.0" stroke="#000000" stroke-linejoin="miter"/></g><g class="table" transform="translate(847.0,228.0)"><g transform="translate(0.0,0.0)"><rect fill="#f0f0f0" height="20.0" width="141.0"/></g><g transform="translate(0.0,0.0)"><text fill="black" font-family="arial, sans-serif" font-size="12" font-weight="700" text-anchor="middle" x="71.5" y="14.1396484375">Wyzdrowialy</text></g><g transform="translate(0.0,20.0)"><rect fill="#ffffff" height="24.0" width="141.0"/><g transform="translate(4.0,3.0)"><g transform="translate(0.0,0.0)"><text fill="black" font-family="arial, sans-serif" font-size="12" font-weight="400" x="1.0" y="10.86328125">IdOsoba</text></g></g><g transform="translate(61.5,3.0)"><g transform="translate(0.0,0.0)"><text fill="black" font-family="arial, sans-serif" font-size="12" font-weight="400" x="1.0" y="10.86328125">integer</text></g></g><g transform="translate(102.25,3.0)"><g transform="translate(0.0,0.0)"><text fill="black" font-family="arial, sans-serif" font-size="12" font-weight="400" x="1.0" y="10.86328125">PK FK</text></g></g></g><polyline fill="none" points="0.0,20.0 0.0,0.0 141.0,0.0 141.0,20.0 0.0,20.0 0.0,44.0 141.0,44.0 141.0,20.0" stroke="#000000" stroke-linejoin="miter"/></g><g transform="translate(834.0,456.0)"><svg height="40" width="166"><svg xmlns:xlink="http://www.w3.org/1999/xlink" enable-background="new 0 0 487.7 116.5" id="Layer_1" version="1.0" viewBox="0 0 487.7 116.5" x="0px" xml:space="preserve" y="0px">
<g>
	<path d="M146.3,28.6c2.2-0.3,4.5-0.5,6.7-0.5c1.9,0,4,0.2,6.1,0.5l3.8,47l20.6-47c2-0.3,4.1-0.5,6.3-0.5   c2.2,0,4.3,0.2,6.4,0.5l-28.4,59.8c-2.5,0.3-4.9,0.5-7.3,0.5c-1.1,0-2.2,0-3.2-0.1c-1.1-0.1-2.2-0.2-3.5-0.4L146.3,28.6z" fill="#222323"/>
	<path d="M198.6,72.1c0.3,2.7,1.2,4.6,2.7,5.9c1.4,1.3,3.5,2,6.3,2c2.2,0,4.2-0.2,5.9-0.7c1.7-0.5,3.5-1.1,5.4-1.9   c0.9,1.1,1.5,2.5,1.8,4c0.3,1.6,0.5,3.3,0.5,5c-0.9,0.4-2,0.8-3.3,1.2c-1.2,0.4-2.5,0.7-3.9,0.9c-1.3,0.2-2.7,0.4-4,0.6   c-1.3,0.1-2.5,0.2-3.6,0.2c-3.4,0-6.3-0.4-8.7-1.2c-2.4-0.8-4.4-2-6-3.5c-1.6-1.5-2.7-3.4-3.5-5.6c-0.7-2.2-1.1-4.6-1.1-7.3   c0-3.4,0.6-6.7,1.7-10c1.2-3.3,2.8-6.2,5-8.8c2.1-2.6,4.7-4.7,7.8-6.2c3.1-1.6,6.5-2.4,10.4-2.4c1.8,0,3.5,0.2,5.1,0.7   c1.6,0.4,3,1.1,4.1,2c1.2,0.9,2.1,2,2.7,3.4c0.7,1.3,1,2.9,1,4.7c0,2.5-0.6,4.7-1.7,6.5c-1.2,1.8-2.7,3.4-4.7,4.7   c-1.9,1.3-4.1,2.3-6.6,3.1c-2.5,0.8-5,1.4-7.7,1.8L198.6,72.1z M203.3,63.6c2.1-0.3,3.8-0.8,5.2-1.3c1.3-0.5,2.4-1.1,3.2-1.7   c0.8-0.6,1.3-1.3,1.6-2c0.3-0.7,0.4-1.3,0.4-2c0-1.1-0.3-1.9-1-2.6c-0.7-0.7-1.6-1-2.8-1c-1.4,0-2.8,0.3-4,1   c-1.2,0.6-2.2,1.5-3.1,2.5c-0.9,1.1-1.7,2.3-2.3,3.6c-0.6,1.4-1.1,2.7-1.5,4.1L203.3,63.6z" fill="#222323"/>
	<path d="M231.5,63.9c0.6-3.5,1.1-6.6,1.4-9.3c0.3-2.7,0.5-4.8,0.5-6.3c0-0.6,0-1.1,0-1.5s0-0.9-0.1-1.4   c1.8-0.3,3.7-0.5,5.5-0.5c0.8,0,1.7,0,2.5,0.1c0.8,0.1,1.7,0.2,2.7,0.4c0.1,0.4,0.2,1,0.3,1.6c0.1,0.6,0.2,1.5,0.2,2.7   c0,0.5,0,1,0,1.5c0,0.5-0.1,1.1-0.2,1.8c0.6-1,1.2-2,2.1-3c0.8-1,1.8-1.8,2.8-2.6c1-0.8,2.2-1.4,3.4-1.9c1.2-0.5,2.6-0.7,4.1-0.7   c1.2,0,2.2,0.1,3,0.4c0.1,0.2,0.1,0.4,0.1,0.7c0,0.2,0,0.5,0,0.7c0,1.6-0.2,3.2-0.6,4.8c-0.4,1.7-0.9,3.1-1.6,4.2   c-0.3-0.1-0.7-0.1-1.1-0.2c-0.4-0.1-0.9-0.1-1.5-0.1c-2.3,0-4.1,0.4-5.6,1.2c-1.5,0.8-2.7,1.9-3.6,3.3c-0.9,1.4-1.7,3.1-2.2,5.1   c-0.6,2-1.1,4.2-1.5,6.7l-3.1,16.7c-2.2,0.3-4.2,0.5-6.1,0.5c-1.9,0-3.9-0.2-5.7-0.5L231.5,63.9z" fill="#222323"/>
	<path d="M269.7,54.4h-6.4c0-1.5,0.1-3,0.3-4.4c0.2-1.4,0.6-3,1.2-4.6h6.4l0.5-2.5c0.3-1.4,0.4-2.7,0.5-4   c0.1-1.2,0.1-2.3,0.1-3.1c1.4-0.9,3.2-1.6,5.4-2c2.2-0.4,4.2-0.6,6-0.6c0.3,0.8,0.4,1.9,0.4,3.2c0,0.9-0.1,1.8-0.2,2.9   c-0.1,1-0.3,2.2-0.5,3.4l-0.5,2.7h10.3c0,1.7-0.1,3.2-0.4,4.6c-0.3,1.4-0.7,2.9-1.2,4.4h-10.3l-2.9,16.4c-0.1,0.8-0.2,1.5-0.3,2.2   c-0.1,0.7-0.1,1.3-0.1,1.9c0,1.4,0.3,2.6,1,3.4c0.7,0.8,1.9,1.2,3.7,1.2c0.9,0,1.8-0.1,2.5-0.2c0.7-0.1,1.4-0.3,2-0.5   c0.7,1.6,1.1,3.7,1.1,6.3c0,0.4,0,0.9,0,1.3c0,0.4,0,0.9-0.1,1.3c-2.4,0.7-5.2,1.1-8.6,1.1c-4.7,0-8.1-0.9-10.4-2.6   c-2.2-1.7-3.4-4.6-3.4-8.7c0-0.8,0.1-1.7,0.2-2.6c0.1-0.9,0.2-1.9,0.4-2.9L269.7,54.4z" fill="#222323"/>
	<path d="M331.9,69.8c-0.6,3.5-1.1,6.6-1.3,9.3c-0.3,2.7-0.4,4.8-0.4,6.3c0,0.6,0,1.1,0,1.5s0,0.9,0.1,1.4   c-1.8,0.3-3.6,0.5-5.4,0.5c-1.6,0-3.3-0.2-5.2-0.5c-0.1-0.4-0.2-1-0.3-1.6c-0.1-0.6-0.2-1.5-0.2-2.7c0-0.5,0-1,0-1.6   c0-0.6,0.1-1.2,0.2-1.9c-1.6,2.6-3.7,4.7-6.2,6.4c-2.5,1.7-5.4,2.6-8.7,2.6c-3.7,0-6.4-1.2-8.2-3.5c-1.8-2.3-2.7-5.4-2.7-9.2   c0-4.2,0.6-8.2,1.9-12.1c1.2-3.9,3.1-7.3,5.6-10.3c2.5-3,5.5-5.4,9.2-7.2c3.7-1.8,7.9-2.7,12.8-2.7c2.4,0,4.7,0.2,6.8,0.5   c2.1,0.3,4.2,0.8,6.2,1.4L331.9,69.8z M323.3,54.3c-0.5-0.1-1-0.2-1.5-0.2c-0.5,0-0.9,0-1.4,0c-2.7,0-4.9,0.7-6.8,2   c-1.9,1.3-3.4,3-4.6,5c-1.2,2-2.1,4.1-2.7,6.4c-0.6,2.3-0.8,4.4-0.8,6.3c0,4.1,1.4,6.2,4.1,6.2c2.7,0,5.1-1.6,7.4-4.9   c2.3-3.2,3.9-7.8,5-13.7L323.3,54.3z" fill="#222323"/>
	<path d="M344.9,43.7c1-5.8,1.5-10.2,1.5-13.2c0-0.6,0-1.1,0-1.5c0-0.4-0.1-0.9-0.1-1.4c0.9-0.2,2-0.3,3.2-0.4   c1.2-0.1,2.3-0.1,3.2-0.1c1.6,0,3.4,0.2,5.3,0.5c0.3,0.8,0.4,1.9,0.4,3.2c0,2.4-0.3,5.4-1,8.9l-2.1,11.6c0.7-0.8,1.4-1.7,2.2-2.5   c0.8-0.8,1.7-1.5,2.8-2.2c1.1-0.7,2.3-1.2,3.7-1.6c1.4-0.4,3-0.6,4.8-0.6c3.9,0,6.9,1.3,8.9,4c2.1,2.7,3.1,6.5,3.1,11.6   c0,3.4-0.5,6.9-1.5,10.4c-1,3.5-2.7,6.7-5,9.5c-2.4,2.8-5.5,5.1-9.4,6.9c-3.9,1.8-8.7,2.7-14.4,2.7c-2.6,0-5-0.2-7.2-0.7   c-2.2-0.4-4.2-1.1-6.2-1.8L344.9,43.7z M350.4,79.1c0.4,0.2,1,0.3,1.7,0.4c0.7,0.1,1.4,0.1,2.1,0.1c2.4,0,4.5-0.6,6.3-1.7   c1.7-1.1,3.2-2.6,4.3-4.3c1.1-1.7,2-3.7,2.5-5.8c0.5-2.1,0.8-4.2,0.8-6.2c0-1.9-0.4-3.6-1.2-5c-0.8-1.4-2.2-2.1-4.1-2.1   c-2.6,0-4.7,1.1-6.6,3.2c-1.8,2.2-3.2,5.7-4,10.7L350.4,79.1z" fill="#222323"/>
	<path d="M395.7,72.1c0.3,2.7,1.2,4.6,2.7,5.9c1.4,1.3,3.5,2,6.3,2c2.2,0,4.2-0.2,5.9-0.7c1.7-0.5,3.5-1.1,5.4-1.9   c0.9,1.1,1.5,2.5,1.8,4c0.3,1.6,0.5,3.3,0.5,5c-0.9,0.4-2,0.8-3.3,1.2c-1.2,0.4-2.5,0.7-3.9,0.9c-1.3,0.2-2.7,0.4-4,0.6   c-1.3,0.1-2.5,0.2-3.6,0.2c-3.4,0-6.3-0.4-8.7-1.2c-2.4-0.8-4.4-2-6-3.5c-1.6-1.5-2.7-3.4-3.5-5.6c-0.7-2.2-1.1-4.6-1.1-7.3   c0-3.4,0.6-6.7,1.7-10c1.2-3.3,2.8-6.2,5-8.8c2.1-2.6,4.7-4.7,7.8-6.2c3.1-1.6,6.5-2.4,10.4-2.4c1.8,0,3.5,0.2,5.1,0.7   c1.6,0.4,3,1.1,4.1,2c1.2,0.9,2.1,2,2.7,3.4c0.7,1.3,1,2.9,1,4.7c0,2.5-0.6,4.7-1.7,6.5c-1.2,1.8-2.7,3.4-4.7,4.7   c-1.9,1.3-4.1,2.3-6.6,3.1c-2.5,0.8-5,1.4-7.7,1.8L395.7,72.1z M400.5,63.6c2.1-0.3,3.8-0.8,5.2-1.3c1.3-0.5,2.4-1.1,3.2-1.7   c0.8-0.6,1.3-1.3,1.6-2c0.3-0.7,0.4-1.3,0.4-2c0-1.1-0.3-1.9-1-2.6c-0.7-0.7-1.6-1-2.8-1c-1.4,0-2.8,0.3-4,1   c-1.2,0.6-2.2,1.5-3.1,2.5c-0.9,1.1-1.7,2.3-2.3,3.6c-0.6,1.4-1.1,2.7-1.5,4.1L400.5,63.6z" fill="#222323"/>
	<path d="M430.8,43.7c0.6-2.9,1-5.5,1.3-7.7c0.2-2.2,0.4-4,0.4-5.5c0-0.6,0-1.1,0-1.5c0-0.4-0.1-0.9-0.1-1.4   c0.9-0.2,2-0.3,3.2-0.4c1.2-0.1,2.3-0.1,3.2-0.1c1.6,0,3.4,0.2,5.3,0.5c0.3,0.8,0.4,1.9,0.4,3.2c0,1.2-0.1,2.5-0.3,4   c-0.2,1.5-0.5,3.1-0.8,4.9l-6.4,33.5c-0.2,0.9-0.2,1.7-0.2,2.3c0,0.9,0.1,1.6,0.4,2.1s0.6,0.9,1,1.2c0.4,0.3,0.8,0.5,1.3,0.5   c0.5,0.1,1,0.1,1.5,0.1c0.2,0,0.6,0,1.2-0.1c0.6-0.1,1.2-0.2,1.7-0.4c0.3,0.9,0.5,2,0.7,3.1c0.2,1.1,0.3,2.2,0.3,3.4   c0,0.4,0,0.9,0,1.2c0,0.4-0.1,0.8-0.1,1.2c-0.8,0.3-1.9,0.6-3.2,0.8c-1.3,0.2-2.8,0.3-4.4,0.3c-3.8,0-6.7-0.9-8.9-2.8   c-2.2-1.9-3.2-4.8-3.2-8.8c0-0.8,0.1-1.6,0.2-2.5c0.1-0.9,0.2-1.8,0.4-2.7L430.8,43.7z" fill="#222323"/>
	<path d="M463.5,89.4c-5.7,0-9.9-1.5-12.6-4.5c-2.7-3-4-7.1-4-12.3c0-3.3,0.5-6.7,1.5-10c1-3.4,2.5-6.4,4.5-9.1   c2-2.7,4.5-4.9,7.5-6.6c3-1.7,6.6-2.5,10.6-2.5c5.8,0,10,1.5,12.7,4.6c2.7,3.1,4,7.2,4,12.4c0,3.4-0.5,6.8-1.5,10.2   c-1,3.3-2.5,6.3-4.5,9c-2,2.7-4.5,4.8-7.6,6.4C471.2,88.6,467.6,89.4,463.5,89.4z M464.6,80.4c2.1,0,3.9-0.7,5.3-2   c1.4-1.3,2.6-3,3.5-5c0.9-2,1.6-4,2-6.2c0.4-2.2,0.6-4.2,0.6-5.9c0-5.1-2.1-7.7-6.2-7.7c-2.1,0-3.9,0.7-5.2,2.1   c-1.4,1.4-2.5,3.1-3.4,5.1c-0.9,2-1.5,4.1-1.9,6.3c-0.4,2.2-0.5,4.2-0.5,5.9C458.7,77.9,460.7,80.4,464.6,80.4z" fill="#222323"/>
</g>
<g>
	<polygon fill="#D15197" points="16.6,38.9 31,61.4 31,61.4 47.1,42.1 32.1,20.3  "/>
	<path d="M12.6,32.7C13.5,31.6,21,22.6,28,14.4L18,0h-7.2L0,13L12.6,32.7z" fill="#D15197"/>
	<path d="M34.9,67.5l16,25c0.9-1.1,7.8-9.3,17-20.3L51.2,48L34.9,67.5z" fill="#D15197"/>
	<polygon fill="#D15197" points="72.1,78.1 54.9,98.7 54.9,98.6 66.4,116.5 81.9,92.2  "/>
	<path d="M69.5,26.1L51.3,48l0,0L68,72.2c0,0,0,0,0,0c5.5-6.6,11.9-14.2,18.3-21.9L69.5,26.1z" fill="#5D2F87"/>
	<polygon fill="#5D2F87" points="90.4,56.2 72.1,78.1 72.1,78.1 81.9,92.2 81.9,92.2 97.9,67.1  "/>
	<polygon fill="#5D2F87" points="51.4,0 49,0 32.1,20.3 32.1,20.3 47.1,42.1 47.2,42 65.4,20.2  "/>
	<path d="M18.1,0L18.1,0L28,14.4c0,0,0,0,0-0.1C34.2,6.9,40,0,40,0H18.1z" fill="#5D2F87"/>
	<polygon fill="#25B6EA" points="51.5,0 51.4,0 65.4,20.2 65.4,20.2 82.3,0  "/>
	<path d="M88.5,3.4L69.5,26.1l0,0l16.7,24.1c0,0,0,0,0,0c6.5-7.8,13.1-15.7,19-22.7L88.5,3.4z" fill="#25B6EA"/>
	<polygon fill="#25B6EA" points="109.4,33.4 90.4,56.2 90.4,56.2 97.9,67.1 97.9,67.1 114.6,41  "/>
	<path d="M121.8,0H91.3l-2.7,3.3l-0.1,0.1l16.8,24.1c0,0,0.1-0.1,0.1-0.1C116.5,14,125,3.9,125,3.9L121.8,0z" fill="#93C149"/>
	<polygon fill="#93C149" points="129.5,9.3 109.5,33.3 109.4,33.4 114.6,41 114.7,40.9 132.5,13  "/>
</g>
</svg></svg></g></g></svg>